<svg width="40" height="41" viewBox="0 0 40 41" fill="none" xmlns="http://www.w3.org/2000/svg">
<rect y="0.832275" width="40" height="40.0771" rx="8" fill="#F9AA01"/>
<path d="M21.9708 8.3699C21.1573 7.67097 19.8362 7.67097 19.0227 8.3699L8.61011 17.3162C7.79663 18.0151 7.79663 19.1502 8.61011 19.8491C9.4236 20.548 10.7447 20.548 11.5582 19.8491L18.4175 13.9501V31.1046C18.4175 32.0943 19.3481 32.8939 20.5 32.8939C21.6519 32.8939 22.5825 32.0943 22.5825 31.1046V13.9501L29.4418 19.8435C30.2553 20.5424 31.5764 20.5424 32.3899 19.8435C33.2034 19.1446 33.2034 18.0095 32.3899 17.3106L21.9773 8.36431L21.9708 8.3699Z" fill="#1B1426"/>
</svg>
